Coordinates
version=1
nRows=29
nColumns=22
inDegrees=yes

Units are S.I. units (second, meters, Newtons, ...)
If the header above contains a line with 'inDegrees', this indicates whether rotational values are in degrees (yes) or radians (no).

endheader
time	pelvis_tilt	pelvis_list	pelvis_rotation	pelvis_tx	pelvis_ty	pelvis_tz	hip_flexion_r	hip_adduction_r	hip_rotation_r	knee_angle_r	ankle_angle_r	subtalar_angle_r	hip_flexion_l	hip_adduction_l	hip_rotation_l	knee_angle_l	ankle_angle_l	subtalar_angle_l	lumbar_extension	lumbar_bending	lumbar_rotation
      2.47000000	      2.49933208	     -1.55226495	     -2.34828212	      0.12019654	      0.92871806	      0.13881680	      6.48813958	      3.93214133	     -5.25634242	    -18.77031610	      5.64800394	     -5.43693241	      4.90894091	     -3.97924918	     -2.54974102	    -59.68847706	     -2.23788698	      3.88932685	     -9.40027812	     -3.42140826	     -1.41353020
      2.48000000	      2.59401254	     -1.60652540	     -2.34931739	      0.11260396	      0.92829847	      0.13827573	      7.16296731	      3.95102240	     -5.25116726	    -19.23181609	      5.32082828	     -5.48861366	      3.53426969	     -3.76436679	     -2.20165188	    -59.50805012	     -4.07970106	      3.97473388	     -9.26490188	     -3.36783898	     -1.85685525
      2.49000000	      2.65656597	     -1.64472203	     -2.29955341	      0.10486971	      0.92778796	      0.13760474	      7.86987444	      3.94515895	     -5.30658707	    -19.66831344	      4.98634884	     -5.55979591	      2.23782914	     -3.55886177	     -1.86001946	    -59.21568910	     -5.97310116	      4.12368852	     -9.11122699	     -3.33182464	     -2.32323673
      2.50000000	      2.68479169	     -1.66891414	     -2.19390623	      0.09698092	      0.92717900	      0.13679052	      8.60742953	      3.91476237	     -5.40732648	    -20.07456954	      4.63866870	     -5.63685488	      1.03407082	     -3.37409569	     -1.53138531	    -58.82671889	     -7.84659429	      4.31180624	     -8.93764822	     -3.30970672	     -2.81744549
      2.51000000	      2.67927379	     -1.69425868	     -2.03598949	      0.08889635	      0.92648413	      0.13582971	      9.36874632	      3.87707606	     -5.52929573	    -20.43094750	      4.26013634	     -5.70335418	     -0.06490756	     -3.22200128	     -1.20555038	    -58.35646115	     -9.66739552	      4.47654159	     -8.75478287	     -3.28177390	     -3.31709519
      2.52000000	      2.66697845	     -1.70088329	     -1.83820907	      0.08064818	      0.92573866	      0.13473012	     10.13559308	      3.79913517	     -5.72727881	    -20.76371410	      3.87699680	     -5.75505809	     -1.10147464	     -3.09016628	     -0.92058326	    -57.77961962	    -11.35490246	      4.65449492	     -8.58699960	     -3.27206429	     -3.83091426
      2.53000000	      2.65489671	     -1.70157591	     -1.59564611	      0.07221289	      0.92495791	      0.13348527	     10.89950603	      3.69242400	     -5.98926049	    -21.07044365	      3.47634511	     -5.78295922	     -2.07806927	     -2.98200741	     -0.64509410	    -57.09549345	    -12.84812893	      4.80502474	     -8.44621448	     -3.26729361	     -4.31125630
      2.54000000	      2.62274634	     -1.71500116	     -1.31508494	      0.06356236	      0.92412302	      0.13214511	     11.65715296	      3.59341398	     -6.22904404	    -21.29490124	      3.02015077	     -5.79360454	     -2.96450004	     -2.92768788	     -0.40062590	    -56.31081867	    -14.10419259	      4.79985426	     -8.31232224	     -3.24827275	     -4.80463049
      2.55000000	      2.60780381	     -1.72104785	     -0.99969622	      0.05467425	      0.92327372	      0.13068748	     12.40132697	      3.46412714	     -6.51399505	    -21.50150960	      2.53962305	     -5.78143377	     -3.81115673	     -2.88483250	     -0.15406864	    -55.39751378	    -15.04182381	      4.68066550	     -8.23241340	     -3.23890516	     -5.26946493
      2.56000000	      2.59950337	     -1.73397232	     -0.65778482	      0.04554927	      0.92239132	      0.12914635	     13.12635620	      3.32905310	     -6.79727158	    -21.65325646	      2.01740945	     -5.75541412	     -4.61071405	     -2.87081576	      0.08766115	    -54.34898845	    -15.60813375	      4.41933797	     -8.19036703	     -3.22299404	     -5.70949609
      2.57000000	      2.63176678	     -1.76260672	     -0.29927942	      0.03615209	      0.92150180	      0.12753322	     13.81477797	      3.19412236	     -7.10268391	    -21.78277198	      1.45828230	     -5.69416414	     -5.40081117	     -2.89009765	      0.31618229	    -53.16123453	    -15.75778428	      3.90993023	     -8.23085722	     -3.19132629	     -6.10924960
      2.58000000	      2.64477403	     -1.80507834	      0.07339504	      0.02645742	      0.92052400	      0.12587196	     14.50314216	      3.07245780	     -7.34632205	    -21.82284633	      0.83445805	     -5.65287938	     -6.11556922	     -2.92635773	      0.57547857	    -51.84197413	    -15.48962572	      3.34841663	     -8.28200839	     -3.14746383	     -6.50554500
      2.59000000	      2.68271688	     -1.88441421	      0.41554555	      0.01645415	      0.91947868	      0.12421106	     15.17854753	      2.98536341	     -7.57254438	    -21.83542083	      0.14862654	     -5.58661968	     -6.80895608	     -3.00514728	      0.79315753	    -50.40297230	    -14.85108289	      2.56198299	     -8.39542269	     -3.06682289	     -6.79474662
      2.60000000	      2.70289802	     -1.96323063	      0.75598985	      0.00607509	      0.91830443	      0.12248625	     15.87268917	      2.89368668	     -7.73117179	    -21.78038084	     -0.59579414	     -5.52688577	     -7.42362172	     -3.06032000	      1.07307370	    -48.87627216	    -13.87053565	      1.78657129	     -8.52978110	     -2.98509036	     -7.08327100
      2.61000000	      2.70765165	     -2.05169981	      1.09272404	     -0.00467635	      0.91697623	      0.12067437	     16.59055842	      2.79875449	     -7.86755763	    -21.67556658	     -1.35869983	     -5.46223030	     -7.96491119	     -3.08635200	      1.45983834	    -47.29822537	    -12.59204727	      1.07323518	     -8.68728699	     -2.88778656	     -7.33586508
      2.62000000	      2.69995809	     -2.12646713	      1.38526332	     -0.01582704	      0.91550670	      0.11884597	     17.33250525	      2.69017160	     -7.92216398	    -21.51687854	     -2.24239710	     -5.36268682	     -8.43673894	     -3.06546509	      1.89114293	    -45.70692120	    -11.14956375	      0.31451050	     -8.87521611	     -2.80770143	     -7.55636591
      2.63000000	      2.66292923	     -2.20009014	      1.65515290	     -0.02737057	      0.91383945	      0.11695541	     18.12044204	      2.56881636	     -7.94997018	    -21.31994322	     -3.16331394	     -5.24336736	     -8.82194590	     -2.99264851	      2.46689184	    -44.15710691	     -9.50916107	     -0.28016237	     -9.07402644	     -2.72597665	     -7.74384900
      2.64000000	      2.60282493	     -2.26649101	      1.87702918	     -0.03927550	      0.91198413	      0.11506046	     18.95123206	      2.43508621	     -7.95277565	    -21.09509192	     -4.14025381	     -5.13833939	     -9.13692041	     -2.87333081	      3.13724266	    -42.68055460	     -7.66626497	     -0.66733341	     -9.28597317	     -2.65668045	     -7.89338176
      2.65000000	      2.51918311	     -2.35561631	      2.06133060	     -0.05154932	      0.90996914	      0.11316765	     19.81873195	      2.32169704	     -7.93746440	    -20.82415302	     -5.26365160	     -4.94169339	     -9.36144157	     -2.74580539	      3.90096122	    -41.33973596	     -5.63626418	     -0.99660567	     -9.51600507	     -2.56342743	     -8.00011101
      2.66000000	      2.40556710	     -2.44169072	      2.17762675	     -0.06412255	      0.90781623	      0.11136907	     20.72978108	      2.21321495	     -7.90720974	    -20.51462589	     -6.54490939	     -4.65431573	     -9.49806536	     -2.60627041	      4.64046214	    -40.13407021	     -3.36207047	     -1.15736298	     -9.74401123	     -2.49042311	     -8.08322578
      2.67000000	      2.29527040	     -2.54986745	      2.22004708	     -0.07691382	      0.90560564	      0.10970093	     21.64240838	      2.14246462	     -7.90023569	    -20.16662492	     -7.91134688	     -4.44196450	     -9.58627023	     -2.49232641	      5.29706885	    -39.05972091	     -0.78988347	     -1.16790464	     -9.99985992	     -2.40948179	     -8.12009496
      2.68000000	      2.14855901	     -2.65780941	      2.17832044	     -0.08993878	      0.90337487	      0.10818391	     22.61646158	      2.08809026	     -7.90175863	    -19.80064818	     -9.55232377	     -4.00785175	     -9.56284008	     -2.37667787	      5.83741408	    -38.11456515	      1.90628512	     -1.08654149	    -10.24271960	     -2.34981212	     -8.10888156
      2.69000000	      2.02401688	     -2.78540830	      2.03972558	     -0.10302668	      0.90128102	      0.10688703	     23.54188029	      2.09350443	     -7.92160858	    -19.34655460	    -11.33266171	     -3.70444006	     -9.51835511	     -2.29978035	      6.16496310	    -37.22772635	      4.70831945	     -1.05713960	    -10.51636115	     -2.29361825	     -8.05883430
      2.70000000	      1.89452778	     -2.87607683	      1.79842889	     -0.11618746	      0.89936490	      0.10580135	     24.46686395	      2.09793617	     -7.95665445	    -18.83942807	    -13.34484888	     -3.24264306	     -9.40602234	     -2.20115449	      6.23866228	    -36.38540132	      7.43514414	     -1.11623915	    -10.79663273	     -2.30257806	     -7.98192140
      2.71000000	      1.76956496	     -2.93751351	      1.45008453	     -0.12929921	      0.89771491	      0.10495621	     25.35536598	      2.12576344	     -7.96931259	    -18.25347379	    -15.51827435	     -2.68547766	     -9.26434466	     -2.08390832	      6.07449160	    -35.52175392	      9.99709147	     -1.33352881	    -11.07503471	     -2.37145899	     -7.88888128
      2.72000000	      1.65054933	     -2.96422538	      1.00223289	     -0.14229566	      0.89637482	      0.10433890	     26.18985429	      2.17563965	     -7.95586699	    -17.57974979	    -17.81005827	     -2.10121437	     -9.09797744	     -1.94451576	      5.67711415	    -34.62656252	     12.32016402	     -1.67862521	    -11.34575830	     -2.49985000	     -7.77940825
      2.73000000	      1.53165081	     -2.95112310	      0.46037218	     -0.15512458	      0.89534824	      0.10394221	     26.97723297	      2.24363760	     -7.91133633	    -16.85976909	    -20.12319172	     -1.41557137	     -8.88992140	     -1.77760922	      5.05815072	    -33.72443656	     14.35349138	     -2.12925886	    -11.59210383	     -2.69131943	     -7.65478808
      2.74000000	      1.40473869	     -2.89987098	     -0.14856079	     -0.16772122	      0.89462791	      0.10373824	     27.71759725	      2.32911817	     -7.79061938	    -16.13380522	    -22.33500791	     -0.63408264	     -8.63274613	     -1.58732162	      4.27632314	    -32.82305701	     16.08533183	     -2.63090792	    -11.79578252	     -2.93839364	     -7.53083649
      2.75000000	      1.26621761	     -2.81864441	     -0.80491355	     -0.18005071	      0.89419603	      0.10369316	     28.41987474	      2.43433286	     -7.56215041	    -15.47370484	    -24.28892026	      0.25864739	     -8.31427042	     -1.38078242	      3.39536476	    -31.95409001	     17.52396187	     -3.14094448	    -11.94618049	     -3.22566318	     -7.40787585
